<svg width="97" height="18" viewBox="0 0 97 18" fill="none" xmlns="http://www.w3.org/2000/svg">
<path d="M7.17601 16.8L6.15418e-06 4.76837e-05H5.13601L11.184 14.544H8.16001L14.352 4.76837e-05H19.056L11.856 16.8H7.17601ZM25.1985 17.016C23.6625 17.016 22.3185 16.728 21.1665 16.152C20.0305 15.56 19.1425 14.76 18.5025 13.752C17.8785 12.728 17.5665 11.568 17.5665 10.272C17.5665 8.97605 17.8705 7.82405 18.4785 6.81605C19.1025 5.79205 19.9585 5.00005 21.0465 4.44005C22.1345 3.86405 23.3585 3.57605 24.7185 3.57605C25.9985 3.57605 27.1665 3.84005 28.2225 4.36805C29.2785 4.88005 30.1185 5.64005 30.7425 6.64805C31.3665 7.65605 31.6785 8.88005 31.6785 10.32C31.6785 10.48 31.6705 10.664 31.6545 10.872C31.6385 11.08 31.6225 11.272 31.6065 11.448H21.3105V9.04805H29.1825L27.4545 9.72005C27.4705 9.12805 27.3585 8.61605 27.1185 8.18405C26.8945 7.75205 26.5745 7.41605 26.1585 7.17605C25.7585 6.93605 25.2865 6.81605 24.7425 6.81605C24.1985 6.81605 23.7185 6.93605 23.3025 7.17605C22.9025 7.41605 22.5905 7.76005 22.3665 8.20805C22.1425 8.64005 22.0305 9.15205 22.0305 9.74405V10.44C22.0305 11.08 22.1585 11.632 22.4145 12.096C22.6865 12.56 23.0705 12.92 23.5665 13.176C24.0625 13.416 24.6545 13.536 25.3425 13.536C25.9825 13.536 26.5265 13.448 26.9745 13.272C27.4385 13.08 27.8945 12.792 28.3425 12.408L30.7425 14.904C30.1185 15.592 29.3505 16.12 28.4385 16.488C27.5265 16.84 26.4465 17.016 25.1985 17.016ZM33.3009 16.8V3.79205H37.6449V7.58405L36.9969 6.50405C37.3809 5.52805 38.0049 4.80005 38.8689 4.32005C39.7329 3.82405 40.7809 3.57605 42.0129 3.57605V7.68005C41.8049 7.64805 41.6209 7.63205 41.4609 7.63205C41.3169 7.61605 41.1569 7.60805 40.9809 7.60805C40.0529 7.60805 39.3009 7.86405 38.7249 8.37605C38.1489 8.87205 37.8609 9.68805 37.8609 10.824V16.8H33.3009ZM48.1896 17.016C47.0856 17.016 46.0056 16.888 44.9496 16.632C43.9096 16.376 43.0696 16.056 42.4296 15.672L43.7976 12.552C44.4056 12.92 45.1176 13.216 45.9336 13.44C46.7496 13.648 47.5496 13.752 48.3336 13.752C49.1016 13.752 49.6296 13.672 49.9176 13.512C50.2216 13.352 50.3736 13.136 50.3736 12.864C50.3736 12.608 50.2296 12.424 49.9416 12.312C49.6696 12.184 49.3016 12.088 48.8376 12.024C48.3896 11.96 47.8936 11.888 47.3496 11.808C46.8056 11.728 46.2536 11.624 45.6936 11.496C45.1496 11.352 44.6456 11.144 44.1816 10.872C43.7336 10.584 43.3736 10.2 43.1016 9.72005C42.8296 9.24005 42.6936 8.63205 42.6936 7.89605C42.6936 7.06405 42.9336 6.32805 43.4136 5.68805C43.9096 5.03205 44.6296 4.52005 45.5736 4.15205C46.5176 3.76805 47.6696 3.57605 49.0296 3.57605C49.9416 3.57605 50.8616 3.67205 51.7896 3.86405C52.7336 4.04005 53.5256 4.31205 54.1656 4.68005L52.7976 7.77605C52.1576 7.40805 51.5176 7.16005 50.8776 7.03205C50.2376 6.88805 49.6296 6.81605 49.0536 6.81605C48.2856 6.81605 47.7416 6.90405 47.4216 7.08005C47.1176 7.25605 46.9656 7.47205 46.9656 7.72805C46.9656 7.98405 47.1016 8.18405 47.3736 8.32805C47.6456 8.45605 48.0056 8.56005 48.4536 8.64005C48.9176 8.70405 49.4216 8.77605 49.9656 8.85605C50.5096 8.92005 51.0536 9.02405 51.5976 9.16805C52.1576 9.31205 52.6616 9.52805 53.1096 9.81605C53.5736 10.088 53.9416 10.464 54.2136 10.944C54.4856 11.408 54.6216 12.008 54.6216 12.744C54.6216 13.544 54.3736 14.264 53.8776 14.904C53.3976 15.544 52.6776 16.056 51.7176 16.44C50.7736 16.824 49.5976 17.016 48.1896 17.016ZM62.9226 17.016C61.3866 17.016 60.0426 16.728 58.8906 16.152C57.7546 15.56 56.8666 14.76 56.2266 13.752C55.6026 12.728 55.2906 11.568 55.2906 10.272C55.2906 8.97605 55.5946 7.82405 56.2026 6.81605C56.8266 5.79205 57.6826 5.00005 58.7706 4.44005C59.8586 3.86405 61.0826 3.57605 62.4426 3.57605C63.7226 3.57605 64.8906 3.84005 65.9466 4.36805C67.0026 4.88005 67.8426 5.64005 68.4666 6.64805C69.0906 7.65605 69.4026 8.88005 69.4026 10.32C69.4026 10.48 69.3946 10.664 69.3786 10.872C69.3626 11.08 69.3466 11.272 69.3306 11.448H59.0346V9.04805H66.9066L65.1786 9.72005C65.1946 9.12805 65.0826 8.61605 64.8426 8.18405C64.6186 7.75205 64.2986 7.41605 63.8826 7.17605C63.4826 6.93605 63.0106 6.81605 62.4666 6.81605C61.9226 6.81605 61.4426 6.93605 61.0266 7.17605C60.6266 7.41605 60.3146 7.76005 60.0906 8.20805C59.8666 8.64005 59.7546 9.15205 59.7546 9.74405V10.44C59.7546 11.08 59.8826 11.632 60.1386 12.096C60.4106 12.56 60.7946 12.92 61.2906 13.176C61.7866 13.416 62.3786 13.536 63.0666 13.536C63.7066 13.536 64.2506 13.448 64.6986 13.272C65.1626 13.08 65.6186 12.792 66.0666 12.408L68.4666 14.904C67.8426 15.592 67.0746 16.12 66.1626 16.488C65.2506 16.84 64.1706 17.016 62.9226 17.016ZM71.025 16.8V3.79205H75.369V7.48805L74.529 6.40805C75.025 5.46405 75.705 4.76005 76.569 4.29605C77.433 3.81605 78.409 3.57605 79.497 3.57605C80.505 3.57605 81.417 3.78405 82.233 4.20005C83.049 4.60005 83.689 5.22405 84.153 6.07205C84.633 6.92005 84.873 8.01605 84.873 9.36005V16.8H80.313V10.104C80.313 9.17605 80.121 8.50405 79.737 8.08805C79.369 7.65605 78.849 7.44005 78.177 7.44005C77.697 7.44005 77.257 7.55205 76.857 7.77605C76.457 7.98405 76.145 8.31205 75.921 8.76005C75.697 9.20805 75.585 9.79205 75.585 10.512V16.8H71.025ZM93.0639 17.016C91.3999 17.016 90.1039 16.608 89.1759 15.792C88.2479 14.96 87.7839 13.712 87.7839 12.048V0.888048H92.3439V12C92.3439 12.464 92.4719 12.832 92.7279 13.104C92.9839 13.36 93.3119 13.488 93.7119 13.488C94.2559 13.488 94.7199 13.352 95.1039 13.08L96.2319 16.272C95.8479 16.528 95.3759 16.712 94.8159 16.824C94.2559 16.952 93.6719 17.016 93.0639 17.016ZM85.8879 7.17605V3.79205H95.3199V7.17605H85.8879Z" fill="#212529"/>
</svg>
