<svg width="27" height="27" viewBox="0 0 27 27" fill="none" xmlns="http://www.w3.org/2000/svg">
<path d="M13.1879 0.000381939C13.399 0.00128728 13.399 0.00128728 13.6143 0.00221091C16.734 0.0451153 19.6729 1.12494 22.0764 3.10904C22.1717 3.18423 22.267 3.25943 22.3652 3.33691C24.74 5.30473 26.3584 8.49372 26.7177 11.5384C26.9001 14.5006 26.4794 17.206 25.0238 19.8113C24.9554 19.9342 24.887 20.057 24.8166 20.1836C24.2632 21.1095 23.5583 21.8643 22.8132 22.636C22.7358 22.7197 22.6584 22.8035 22.5786 22.8898C20.5392 25.0449 17.2888 26.3826 14.3489 26.4724C10.3506 26.5375 6.85523 25.4761 3.90032 22.636C3.24546 21.9575 2.69792 21.2124 2.18096 20.4254C2.11004 20.32 2.03912 20.2145 1.96604 20.1059C0.280648 17.4348 -0.405859 13.8288 0.239493 10.7267C1.25235 6.93458 3.29742 3.78082 6.72239 1.73581C7.88803 1.07861 9.11108 0.608389 10.4093 0.284382C10.5007 0.261516 10.5922 0.23865 10.6864 0.215091C11.522 0.026377 12.3333 -0.00396256 13.1879 0.000381939Z" fill="#C6ECF3"/>
<path d="M13.1884 0.000381939C13.3994 0.00128728 13.3994 0.00128728 13.6148 0.00221091C16.7345 0.0451153 19.6733 1.12494 22.0768 3.10904C22.1721 3.18423 22.2674 3.25943 22.3656 3.33691C24.7404 5.30473 26.3588 8.49372 26.7182 11.5384C26.9005 14.5006 26.4799 17.206 25.0243 19.8113C24.9559 19.9342 24.8875 20.057 24.817 20.1836C24.2636 21.1095 23.5588 21.8643 22.8137 22.636C22.7363 22.7197 22.6588 22.8035 22.5791 22.8898C20.5397 25.0449 17.2892 26.3826 14.3493 26.4724C10.351 26.5375 6.85568 25.4761 3.90078 22.636C3.24592 21.9575 2.69838 21.2124 2.18142 20.4254C2.1105 20.32 2.03957 20.2145 1.9665 20.1059C0.281106 17.4348 -0.405401 13.8288 0.239951 10.7267C1.25281 6.93458 3.29788 3.78082 6.72285 1.73581C7.88849 1.07861 9.11154 0.608389 10.4098 0.284382C10.5012 0.261516 10.5927 0.23865 10.6869 0.215091C11.5224 0.026377 12.3338 -0.00396256 13.1884 0.000381939ZM6.97105 2.98623C6.93052 3.06728 6.89 3.14834 6.84824 3.23185C7.00639 3.22156 7.16455 3.21127 7.32749 3.20067C7.53361 3.188 7.73974 3.17537 7.94586 3.16277C8.05027 3.15588 8.15468 3.14899 8.26225 3.1419C8.41126 3.13299 8.41126 3.13299 8.56328 3.12391C8.65525 3.11812 8.74722 3.11233 8.84197 3.10637C9.05884 3.10904 9.05884 3.10904 9.18165 3.23185C9.25581 3.95864 9.12023 4.49186 8.69041 5.07401C8.43894 5.2914 8.18373 5.47852 7.90557 5.66024C7.84034 5.70995 7.77512 5.75966 7.70792 5.81088C7.70792 5.89193 7.70792 5.97299 7.70792 6.0565C8.02773 6.07711 8.34755 6.09756 8.66738 6.11791C8.75801 6.12376 8.84865 6.12962 8.94203 6.13566C9.30916 6.15891 9.67336 6.17931 10.0413 6.17931C9.75489 6.46575 8.9522 6.3877 8.54169 6.41246C8.0356 6.45697 7.765 6.50637 7.34524 6.81064C6.8619 7.48584 6.81458 8.18472 6.77148 8.99629C6.76436 9.12227 6.76436 9.12227 6.75709 9.25079C6.74567 9.45503 6.73542 9.65933 6.72543 9.86364C6.64437 9.86364 6.56332 9.86364 6.47981 9.86364C6.48266 9.78037 6.48551 9.6971 6.48844 9.61131C6.50413 8.80235 6.42511 8.07047 6.23419 7.28461C5.89387 7.44649 5.59186 7.63074 5.2824 7.84494C4.77572 8.16876 4.37404 8.23517 3.77796 8.2671C3.75382 8.09327 3.73107 7.91925 3.70888 7.74515C3.69606 7.64827 3.68324 7.55138 3.67003 7.45156C3.65512 7.16115 3.69245 6.94675 3.77796 6.67056C3.36867 6.63335 3.12039 6.6221 2.76477 6.83942C2.44553 7.31829 2.38588 7.827 2.30423 8.38991C2.22318 8.38991 2.14212 8.38991 2.05861 8.38991C1.24591 12.055 0.983239 15.4439 2.54985 18.9517C2.67144 18.9517 2.79302 18.9517 2.91829 18.9517C2.94805 19.0569 2.97781 19.1622 3.00848 19.2707C3.90352 21.6768 6.27941 23.3978 8.50475 24.4633C11.4055 25.758 14.9672 25.9262 17.9689 24.8068C19.5575 24.035 20.9713 23.1761 22.1996 21.8991C22.2973 21.8024 22.395 21.7057 22.4956 21.606C23.7002 20.3559 24.5841 18.7454 25.1471 17.1095C25.1891 16.9876 25.2311 16.8657 25.2744 16.7401C25.6215 15.6443 25.7202 14.6402 25.7074 13.4942C25.7066 13.3671 25.7066 13.3671 25.7058 13.2374C25.6844 10.7207 25.308 8.01007 23.5045 6.10591C23.2535 5.88928 23.0028 5.79479 22.6909 5.68807C22.4081 5.4276 22.1487 5.15307 21.8902 4.86869C21.4844 4.43918 21.0969 4.12855 20.5801 3.83823C20.1733 3.60937 20.0125 3.5163 19.7664 3.10904C19.0156 2.07939 17.0701 1.6422 15.8698 1.43879C15.4293 1.38369 14.989 1.33826 14.547 1.29757C14.3984 1.28222 14.2498 1.26686 14.0967 1.25104C11.5013 0.992777 9.15564 1.54646 6.97105 2.98623Z" fill="#F6F9FA"/>
<path d="M13.1884 0.000381939C13.3994 0.00128728 13.3994 0.00128728 13.6148 0.00221091C16.7345 0.0451153 19.6733 1.12494 22.0768 3.10904C22.1721 3.18423 22.2674 3.25943 22.3656 3.33691C24.7404 5.30473 26.3588 8.49372 26.7182 11.5384C26.9005 14.5006 26.4799 17.206 25.0243 19.8113C24.9559 19.9342 24.8875 20.057 24.817 20.1836C24.2636 21.1095 23.5588 21.8643 22.8137 22.636C22.7363 22.7197 22.6588 22.8035 22.5791 22.8898C20.5397 25.0449 17.2892 26.3826 14.3493 26.4724C10.351 26.5375 6.85568 25.4761 3.90078 22.636C3.24592 21.9575 2.69838 21.2124 2.18142 20.4254C2.1105 20.32 2.03957 20.2145 1.9665 20.1059C0.281106 17.4348 -0.405401 13.8288 0.239951 10.7267C1.25281 6.93458 3.29788 3.78082 6.72285 1.73581C7.88849 1.07861 9.11154 0.608389 10.4098 0.284382C10.5012 0.261516 10.5927 0.23865 10.6869 0.215091C11.5224 0.026377 12.3338 -0.00396256 13.1884 0.000381939ZM4.76045 3.72309C4.64188 3.82869 4.5233 3.93428 4.40113 4.04307C3.41024 4.96043 2.71431 5.98724 2.05861 7.1618C2.01632 7.23627 1.97403 7.31073 1.93046 7.38745C1.32546 8.4661 0.973645 9.52365 0.707688 10.7233C0.675304 10.8646 0.675304 10.8646 0.642265 11.0088C0.332896 12.7801 0.443289 14.8952 0.95331 16.6183C0.975691 16.6952 0.998073 16.7721 1.02113 16.8514C2.00115 20.1656 4.08598 22.8152 7.12352 24.4743C7.35853 24.5998 7.59438 24.7236 7.83073 24.8466C7.92762 24.8984 8.0245 24.9501 8.12432 25.0035C8.3905 25.1339 8.65723 25.2369 8.93603 25.3378C9.0717 25.3923 9.20737 25.4468 9.34716 25.5029C10.6349 25.9674 11.9185 26.0119 13.2728 26.0133C13.362 26.0138 13.4513 26.0144 13.5432 26.0149C14.7095 26.0179 15.7914 25.9067 16.9187 25.5835C17.0144 25.5566 17.11 25.5297 17.2085 25.502C20.3051 24.5796 23.0989 22.4168 24.6846 19.5825C26.1967 16.7343 26.8563 13.2092 26.0451 10.0402C25.957 9.77441 25.8628 9.51051 25.7611 9.24959C25.7167 9.1269 25.6722 9.00421 25.6263 8.8778C25.4807 8.50216 25.3193 8.14006 25.1471 7.77586C25.1136 7.70432 25.08 7.63278 25.0455 7.55908C23.5721 4.46484 20.9751 2.32052 17.7784 1.14406C13.2089 -0.326756 8.38258 0.481027 4.76045 3.72309Z" fill="#183471"/>
<path d="M8.56566 11.5844C9.13282 11.8063 9.41185 12.1427 9.67096 12.6897C9.80229 13.5543 9.73592 14.2322 9.2392 14.9588C8.88551 15.3218 8.52727 15.4304 8.02836 15.4453C7.57977 15.4335 7.44888 15.3845 7.04587 15.1382C6.49362 14.5202 6.27608 13.9131 6.30277 13.0927C6.39473 12.6 6.6471 12.2083 6.96912 11.83C7.49254 11.4811 7.95159 11.5224 8.56566 11.5844Z" fill="#162F62"/>
<path d="M20.7275 11.338C21.1867 11.6112 21.5151 11.9424 21.7099 12.4433C21.7942 13.2292 21.8207 13.9929 21.3415 14.6539C20.9349 15.0838 20.5685 15.2441 19.9892 15.2867C19.5449 15.2527 19.3285 15.0753 19.0081 14.7767C18.5365 14.1528 18.4379 13.5276 18.4698 12.7566C18.5643 12.127 18.8853 11.8153 19.3458 11.4071C19.8572 11.1613 20.1939 11.1531 20.7275 11.338Z" fill="#10356E"/>
<path d="M0.33821 12.4429C0.378738 12.4429 0.419266 12.4429 0.461022 12.4429C0.468324 12.5261 0.475626 12.6093 0.483149 12.6951C0.705772 15.1265 1.02266 17.5587 2.30319 19.6887C2.3749 19.8089 2.44662 19.929 2.52051 20.0528C4.28193 22.8403 7.12564 24.9143 10.3435 25.7002C12.1216 26.0441 14.0079 25.954 15.8124 25.9521C15.8124 26.0331 15.8124 26.1142 15.8124 26.1977C13.4194 27.0865 10.2898 26.3946 8.00479 25.4153C5.58821 24.2662 3.64569 22.6563 2.18038 20.4256C2.10945 20.3202 2.03853 20.2147 1.96546 20.1061C0.536874 17.842 0.102759 15.3238 0.215399 12.6885C0.255927 12.6074 0.296455 12.5264 0.33821 12.4429Z" fill="#122C6C"/>
<path d="M25.5166 17.4783C25.5774 17.5999 25.5774 17.5999 25.6394 17.7239C25.761 17.6834 25.8826 17.6428 26.0079 17.6011C25.1577 20.3515 23.1757 22.8491 20.727 24.3557C20.6152 24.4271 20.5035 24.4985 20.3883 24.572C19.1972 25.3042 17.0825 26.5336 15.651 26.2674C15.5834 26.2445 15.5158 26.2215 15.4461 26.1979C15.5677 26.1979 15.6893 26.1979 15.8145 26.1979C15.8145 26.1168 15.8145 26.0357 15.8145 25.9522C15.6524 25.9117 15.4903 25.8712 15.3233 25.8294C15.4143 25.8114 15.5054 25.7933 15.5991 25.7747C19.1776 25.0126 22.2613 23.1791 24.2885 20.0573C24.7634 19.2321 25.1749 18.3667 25.5166 17.4783Z" fill="#13366E"/>
<path d="M19.2506 11.9521C19.573 11.9982 19.573 11.9982 19.8647 12.075C19.9052 12.2776 19.9457 12.4802 19.9875 12.689C20.0761 12.7042 20.1648 12.7194 20.2561 12.7351C20.5993 12.8113 20.8978 12.9074 21.2156 13.0574C21.3939 13.414 21.3841 13.6436 21.3384 14.0399C21.1157 14.3997 20.8628 14.7076 20.4787 14.8996C20.0032 14.9525 19.8002 14.9385 19.3965 14.6693C19.0336 14.3169 19.0083 14.2332 18.9844 13.7176C18.9829 13.5385 18.9821 13.3594 18.982 13.1803C18.9805 13.0897 18.979 12.9992 18.9774 12.9059C18.9768 12.6696 18.99 12.4335 19.005 12.1978C19.086 12.1167 19.1671 12.0357 19.2506 11.9521Z" fill="#45DAF4"/>
<path d="M14.9543 2.12939C17.3609 1.96806 19.5996 3.00021 21.4633 4.4628C21.5889 4.55827 21.5889 4.55827 21.717 4.65566C23.4152 6.03143 24.6783 8.32742 24.95 10.4949C24.9812 10.8176 25.0066 11.1394 25.0248 11.463C24.9437 11.463 24.8627 11.463 24.7792 11.463C24.7611 11.3514 24.7431 11.2398 24.7245 11.1248C24.3441 8.99366 23.5435 6.75109 21.8317 5.32248C21.6636 5.17905 21.6636 5.17905 21.4921 5.03272C19.6578 3.51887 17.3525 2.41884 14.9543 2.37502C14.9543 2.29396 14.9543 2.21291 14.9543 2.12939Z" fill="#5B96C8"/>
<path d="M7.21498 12.0759C7.47595 12.122 7.47595 12.122 7.70622 12.1987C7.70622 12.4824 7.70622 12.7661 7.70622 13.0584C7.81514 13.0863 7.92406 13.1141 8.03628 13.1428C8.51145 13.3311 8.74509 13.5143 9.05714 13.9181C9.1339 14.2942 9.1339 14.2942 9.05714 14.655C8.79979 14.9686 8.61583 15.1257 8.20514 15.1745C7.69781 15.1486 7.48701 15.0459 7.09217 14.7087C6.78265 14.1767 6.79452 13.9076 6.84655 13.304C6.9276 13.304 7.00866 13.304 7.09217 13.304C7.06684 13.147 7.04151 12.9899 7.01541 12.8281C6.97224 12.5605 6.97224 12.5605 6.96936 12.3215C7.05041 12.2405 7.13147 12.1594 7.21498 12.0759Z" fill="#36CDE9"/>
<path d="M2.30559 13.5498C2.38664 13.5903 2.4677 13.6309 2.55121 13.6726C2.54694 13.8168 2.54266 13.9611 2.53826 14.1097C2.47442 17.1908 3.16607 19.6052 5.31446 21.8856C5.81625 22.3657 6.39481 22.7467 6.97241 23.1291C6.75653 23.2106 6.75653 23.2106 6.48116 23.2519C6.24418 23.1243 6.24418 23.1243 6.00527 22.9295C5.88796 22.8359 5.88796 22.8359 5.76828 22.7405C5.67931 22.6661 5.59034 22.5917 5.49868 22.515C5.37915 22.4202 5.25963 22.3254 5.13648 22.2277C3.9991 21.2757 3.25205 19.9266 2.67402 18.5851C2.594 18.4134 2.594 18.4134 2.51235 18.2382C1.96278 16.8346 2.0729 15.1537 2.18278 13.6726C2.22331 13.6321 2.26383 13.5916 2.30559 13.5498Z" fill="#5698C8"/>
<path d="M0.339063 12.4429C0.379591 12.4429 0.420119 12.4429 0.461874 12.4429C0.469177 12.5261 0.476479 12.6093 0.484002 12.6951C0.721052 15.2841 1.07794 17.8496 2.54966 20.0572C2.50913 20.1787 2.46861 20.3003 2.42685 20.4256C1.09533 19.329 0.490547 17.097 0.249833 15.4393C0.0545308 13.0119 0.0545309 13.0119 0.339063 12.4429Z" fill="#101C58"/>
<path d="M26.4972 10.8474C26.5377 10.8474 26.5783 10.8474 26.62 10.8474C26.8346 12.5728 26.8295 14.2944 26.4972 16.0055C26.4705 16.1456 26.4437 16.2857 26.4161 16.43C26.2523 17.1847 26.2523 17.1847 26.1288 17.4792C25.8707 17.6423 25.8707 17.6423 25.6375 17.7248C25.7112 17.0835 25.815 16.4618 25.9446 15.8289C26.1487 14.769 26.1857 13.7123 26.2051 12.6349C26.2196 11.9939 26.2395 11.4466 26.4972 10.8474Z" fill="#213366"/>
<path d="M25.3947 11.5833C26.0511 12.5678 25.7607 14.6121 25.5849 15.7486C25.4101 16.5461 25.1965 17.3375 24.6578 17.9694C24.6592 17.8836 24.6607 17.7978 24.6621 17.7094C24.6632 17.5976 24.6643 17.4859 24.6655 17.3707C24.6669 17.2596 24.6683 17.1485 24.6698 17.034C24.6778 16.7392 24.6778 16.7392 24.535 16.4957C24.5681 16.2429 24.5681 16.2429 24.6348 15.9507C24.6558 15.8546 24.6769 15.7585 24.6986 15.6595C24.7806 15.3904 24.7806 15.3904 25.0262 15.022C25.1731 14.273 25.1561 13.5268 25.1338 12.7667C25.1257 12.3075 25.1386 11.9728 25.3947 11.5833Z" fill="#A1DAEC"/>
<path d="M1.56458 7.16187C1.68616 7.16187 1.80774 7.16187 1.93301 7.16187C1.85109 7.69037 1.66749 8.13758 1.45712 8.62792C0.745166 10.3693 0.630333 12.0544 0.582089 13.9165C0.541561 13.9165 0.501033 13.9165 0.459278 13.9165C0.41875 13.5112 0.378222 13.1059 0.336467 12.6884C0.295939 13.2963 0.255411 13.9042 0.213655 14.5305C0.173128 14.5305 0.1326 14.5305 0.0908444 14.5305C0.0445136 11.8604 0.312863 9.55692 1.56458 7.16187Z" fill="#0F2765"/>
<path d="M22.933 5.93335C23.3917 6.00046 23.5599 6.16117 23.8387 6.52438C24.7746 7.7937 25.4316 9.24708 25.3892 10.8458C25.3081 10.8458 25.2271 10.8458 25.1436 10.8458C25.1031 10.9674 25.0625 11.089 25.0208 11.2142C24.9896 11.0955 24.9584 10.9768 24.9263 10.8544C24.8386 10.5216 24.7495 10.1893 24.6595 9.85707C24.5856 9.58415 24.5151 9.31178 24.4494 9.03673C24.2385 8.2137 23.8374 7.52886 23.4046 6.8055C23.2341 6.51815 23.0762 6.23468 22.933 5.93335Z" fill="#B8E4F5"/>
<path d="M20.4755 11.5845C20.7672 11.7457 20.7672 11.7457 20.9667 11.9529C20.9667 12.0745 20.9667 12.1961 20.9667 12.3213C21.0883 12.3619 21.2099 12.4024 21.3352 12.4441C21.5165 12.8728 21.4668 13.3375 21.458 13.7951C21.539 13.8356 21.6201 13.8761 21.7036 13.9179C21.4621 14.4771 21.2487 14.8295 20.7211 15.146C20.3789 15.2362 20.0982 15.257 19.7386 15.2688C19.6576 15.1877 19.5765 15.1067 19.493 15.0232C19.5741 14.9421 19.6551 14.8611 19.7386 14.7775C19.8526 14.7826 19.9666 14.7877 20.084 14.7929C20.5757 14.7736 20.7425 14.6234 21.0895 14.2863C21.23 14.0054 21.225 13.8451 21.22 13.5341C21.2175 13.377 21.215 13.22 21.2124 13.0582C21.1237 13.043 21.035 13.0278 20.9437 13.0121C20.5914 12.9339 20.3023 12.8617 19.9842 12.6898C19.898 12.4869 19.816 12.2821 19.7386 12.0757C19.4909 11.9106 19.4909 11.9106 19.2474 11.8301C19.6658 11.5726 19.9882 11.5337 20.4755 11.5845Z" fill="#0C4D79"/>
<path d="M11.5162 16.9878C12.0491 17.0493 12.3452 17.3921 12.7443 17.7247C13.4258 17.9672 14.4122 18.0069 15.0873 17.7506C15.3485 17.5778 15.5595 17.3661 15.7762 17.1413C15.9374 16.9878 15.9374 16.9878 16.3058 16.9878C16.2759 17.3925 16.1579 17.5035 15.8606 17.7937C15.1485 18.3392 14.4765 18.5379 13.5858 18.5133C12.8516 18.4047 12.2549 18.0478 11.6851 17.5865C11.5162 17.3562 11.5162 17.3562 11.5162 16.9878Z" fill="#1E4472"/>
<path d="M19.2545 11.9521C19.5769 11.9982 19.5769 11.9982 19.8685 12.075C19.9091 12.2776 19.9496 12.4802 19.9914 12.689C20.08 12.7042 20.1687 12.7194 20.26 12.7351C20.6032 12.8113 20.9017 12.9074 21.2195 13.0574C21.3858 13.3901 21.3503 13.6726 21.3423 14.0399C21.3017 14.0399 21.2612 14.0399 21.2195 14.0399C21.2195 13.8373 21.2195 13.6347 21.2195 13.4259C20.9559 13.4226 20.6924 13.4202 20.4289 13.4182C20.2087 13.4161 20.2087 13.4161 19.9842 13.4139C19.6366 13.3842 19.6366 13.3842 19.5001 13.5487C19.4718 13.7142 19.4496 13.8807 19.431 14.0476C19.4133 14.2072 19.3956 14.3668 19.3773 14.5312C19.1955 14.4088 19.1955 14.4088 19.0089 14.1627C18.9756 13.8216 18.963 13.5127 18.9705 13.1726C18.9701 13.0826 18.9697 12.9926 18.9693 12.8999C18.976 12.2306 18.976 12.2306 19.2545 11.9521Z" fill="#348BC0"/>
<path d="M3.53074 6.79517C3.66224 7.18967 3.65355 7.48774 3.65355 7.90047C3.69408 8.02205 3.73461 8.14363 3.77636 8.2689C3.979 8.30943 4.18164 8.34995 4.39042 8.39171C4.19852 8.76014 4.19852 8.76014 3.89917 9.12858C3.61261 9.12858 3.32605 9.12858 3.0395 9.12858C2.62484 9.58688 2.48352 9.9925 2.42544 10.6023C2.30386 10.6023 2.18227 10.6023 2.05701 10.6023C2.10054 9.67353 2.45032 8.9693 2.86295 8.14609C2.92683 8.0158 2.99071 7.88551 3.05653 7.75127C3.21333 7.43191 3.37141 7.11327 3.53074 6.79517Z" fill="#A0D6ED"/>
<path d="M3.04042 9.00464C3.44041 9.05592 3.60958 9.08255 3.9001 9.37307C3.86997 9.98554 3.8273 10.4935 3.40885 10.9696C3.01739 11.0694 3.01739 11.0694 2.67199 11.0924C2.41298 10.6715 2.36754 10.3545 2.42636 9.86432C2.6106 9.54934 2.78151 9.26354 3.04042 9.00464Z" fill="#FBFCFC"/>
<path d="M14.9543 2.1292C17.2857 1.97291 19.3216 2.95293 21.2176 4.21699C21.0961 4.27778 21.0961 4.27778 20.972 4.3398C20.9315 4.42086 20.891 4.50191 20.8492 4.58543C20.7834 4.53334 20.7175 4.48126 20.6496 4.42759C19.7188 3.73102 18.7278 3.29507 17.6561 2.86607C17.552 2.82269 17.4478 2.77932 17.3405 2.73462C16.5684 2.44118 15.7736 2.41155 14.9543 2.37483C14.9543 2.29377 14.9543 2.21272 14.9543 2.1292Z" fill="#73B5D8"/>
<path d="M4.26702 3.60229C4.30755 3.68335 4.34808 3.76441 4.38983 3.84792C4.47089 3.88844 4.55194 3.92897 4.63545 3.97073C4.56105 4.03659 4.48664 4.10244 4.40998 4.1703C3.57584 4.95053 3.00771 5.77559 2.42869 6.75317C2.17923 7.16382 2.17923 7.16382 1.93361 7.40944C1.93361 7.32838 1.93361 7.24733 1.93361 7.16382C1.85256 7.16382 1.7715 7.16382 1.68799 7.16382C2.21738 5.74787 3.21438 4.65494 4.26702 3.60229Z" fill="#133476"/>
<path d="M19.2533 24.6021C19.3343 24.6426 19.4154 24.6831 19.4989 24.7249C19.3722 25.1267 19.259 25.2131 18.8781 25.4123C18.7225 25.4743 18.5661 25.5342 18.4089 25.5922C18.327 25.6236 18.245 25.6549 18.1605 25.6872C16.1496 26.4375 16.1496 26.4375 15.4461 26.1986C15.5677 26.1986 15.6893 26.1986 15.8145 26.1986C15.8145 26.1175 15.8145 26.0365 15.8145 25.953C15.6524 25.9124 15.4903 25.8719 15.3233 25.8302C15.4598 25.8031 15.4598 25.8031 15.5991 25.7755C16.832 25.5129 18.121 25.1682 19.2533 24.6021Z" fill="#1C4274"/>
<path d="M15.1994 0.162109C16.043 0.175501 16.7949 0.370501 17.5942 0.622651C17.7419 0.666834 17.7419 0.666834 17.8925 0.711911C18.594 0.944046 18.594 0.944046 18.8261 1.35376C18.8451 1.44685 18.8641 1.53993 18.8837 1.63584C18.8176 1.61299 18.7515 1.59013 18.6835 1.56658C17.994 1.3319 17.3009 1.12912 16.5963 0.94503C16.4477 0.905135 16.4477 0.905135 16.296 0.864435C15.7267 0.714712 15.1698 0.60106 14.5853 0.530543C14.6638 0.492548 14.7423 0.454553 14.8232 0.415407C15.0687 0.305244 15.0687 0.305244 15.1994 0.162109Z" fill="#1E3E76"/>
<path d="M15.8165 25.9541C15.8165 26.0351 15.8165 26.1162 15.8165 26.1997C15.2849 26.4021 14.85 26.4747 14.2823 26.4693C14.0615 26.4681 14.0615 26.4681 13.8362 26.4669C13.6842 26.4648 13.5322 26.4628 13.3756 26.4607C13.2208 26.4595 13.066 26.4584 12.9065 26.4573C12.5255 26.4544 12.1446 26.4504 11.7637 26.4453C11.7637 26.3237 11.7637 26.2021 11.7637 26.0769C12.2089 26.0559 12.6541 26.0356 13.0993 26.0155C13.2237 26.0096 13.3482 26.0037 13.4764 25.9977C14.2571 25.9627 15.035 25.9463 15.8165 25.9541Z" fill="#1B2E53"/>
<path d="M7.21801 12.0759C7.47899 12.122 7.47899 12.122 7.70926 12.1987C7.70926 12.4824 7.70926 12.7661 7.70926 13.0584C7.79031 13.0989 7.87137 13.1395 7.95488 13.1812C7.89836 13.2301 7.84184 13.2791 7.78361 13.3295C7.5536 13.5863 7.47912 13.797 7.3792 14.1253C7.34833 14.2246 7.31746 14.3239 7.28565 14.4261C7.25217 14.5394 7.25217 14.5394 7.21801 14.655C6.97675 14.4542 6.85901 14.3523 6.8136 14.0356C6.82559 13.7918 6.83759 13.5479 6.84958 13.304C6.93063 13.304 7.01169 13.304 7.0952 13.304C7.06987 13.147 7.04454 12.9899 7.01844 12.8281C6.97527 12.5605 6.97527 12.5605 6.97239 12.3215C7.05344 12.2405 7.1345 12.1594 7.21801 12.0759Z" fill="#2D7AAE"/>
<path d="M7.70462 12.3213C7.74515 12.4023 7.78568 12.4834 7.82743 12.5669C8.13782 12.6474 8.13782 12.6474 8.44149 12.6897C8.44149 12.7708 8.44149 12.8518 8.44149 12.9353C8.64412 12.8948 8.84676 12.8543 9.05554 12.8125C9.05554 12.8936 9.05554 12.9746 9.05554 13.0582C9.17712 13.0987 9.29871 13.1392 9.42397 13.181C9.40996 13.3602 9.3943 13.5393 9.37792 13.7183C9.36937 13.818 9.36082 13.9177 9.35202 14.0205C9.30116 14.2863 9.30116 14.2863 9.05554 14.5319C9.02261 14.4154 8.98968 14.2989 8.95576 14.1788C8.84064 13.764 8.84064 13.764 8.44149 13.5494C8.44149 13.4683 8.44149 13.3873 8.44149 13.3038C8.19832 13.3038 7.95515 13.3038 7.70462 13.3038C7.70462 12.9796 7.70462 12.6553 7.70462 12.3213Z" fill="#2370A0"/>
<path d="M11.146 2.49603C11.2689 2.61884 11.2689 2.61884 11.3072 2.97192C11.2689 3.35571 11.2689 3.35571 11.077 3.59365C10.6589 3.77588 10.3558 3.69395 9.91794 3.60133C9.89491 3.18684 9.89491 3.18684 9.91794 2.74165C10.367 2.44227 10.6167 2.46662 11.146 2.49603Z" fill="#F6FBFD"/>
<path d="M9.18195 25.3401C9.28391 25.3741 9.38586 25.4082 9.4909 25.4432C11.1649 25.9353 12.8507 25.9329 14.5856 25.9541C14.5856 25.9947 14.5856 26.0352 14.5856 26.077C13.6535 26.077 12.7214 26.077 11.761 26.077C11.761 26.158 11.761 26.2391 11.761 26.3226C10.819 26.2697 9.9607 26.1086 9.05914 25.8313C9.1402 25.7908 9.22125 25.7503 9.30477 25.7085C9.26424 25.5869 9.22371 25.4654 9.18195 25.3401Z" fill="#314D74"/>
<path d="M10.531 2.12866C10.3161 2.60455 10.3161 2.60455 10.0398 2.74272C10.0067 3.31385 10.0067 3.31385 10.1626 3.84802C9.9194 3.84802 9.67624 3.84802 9.4257 3.84802C9.38517 3.9696 9.34465 4.09118 9.30289 4.21645C9.2829 3.96859 9.26291 3.72073 9.24292 3.47287C9.19556 3.18543 9.19556 3.18543 8.81165 2.98834C8.81165 2.90728 8.81165 2.82623 8.81165 2.74272C9.1909 2.526 9.33152 2.4971 9.79413 2.4971C9.79413 2.41604 9.79413 2.33498 9.79413 2.25147C10.1626 2.12866 10.1626 2.12866 10.531 2.12866Z" fill="#A1D7ED"/>
<path d="M6.11337 3.47852C6.19443 3.51904 6.27548 3.55957 6.35899 3.60133C6.25514 3.69346 6.15129 3.7856 6.04429 3.88053C5.20308 4.63627 4.45027 5.38782 3.77996 6.30317C3.65838 6.26264 3.5368 6.22211 3.41153 6.18036C3.63715 5.66142 3.76367 5.43472 4.27121 5.19787C4.28118 5.12647 4.29115 5.05507 4.30143 4.98151C4.44271 4.56206 4.77492 4.37649 5.12321 4.13095C5.19089 4.08148 5.25856 4.032 5.32829 3.98103C5.58338 3.796 5.83106 3.61967 6.11337 3.47852Z" fill="#CEEEF5"/>
<path d="M2.05846 14.533C2.09899 14.533 2.13952 14.533 2.18127 14.533C2.18444 14.6917 2.1876 14.8505 2.19087 15.0141C2.22482 16.1701 2.29259 17.1933 2.69218 18.2869C2.79533 18.5857 2.79533 18.5857 2.79533 18.9542C2.42689 18.8313 2.42689 18.8313 2.31742 18.6242C2.28848 18.5362 2.25954 18.4481 2.22972 18.3574C2.19767 18.2608 2.16561 18.1642 2.13258 18.0647C2.10052 17.9631 2.06846 17.8615 2.03543 17.7567C2.00195 17.657 1.96847 17.5573 1.93397 17.4545C1.6195 16.4867 1.6195 16.4867 1.69003 16.0067C1.77108 15.9256 1.85214 15.8446 1.93565 15.7611C1.99234 15.4623 1.99234 15.4623 2.01241 15.1317C2.02159 15.0199 2.03077 14.9081 2.04023 14.793C2.04625 14.7072 2.05226 14.6214 2.05846 14.533Z" fill="#B3DDEF"/>
<path d="M24.6555 8.2666C25.0373 8.57779 25.119 8.87688 25.2312 9.34887C25.2775 9.53624 25.2775 9.53624 25.3248 9.72738C25.3924 10.1087 25.4045 10.4592 25.3924 10.8456C25.3113 10.8456 25.2303 10.8456 25.1468 10.8456C25.1062 10.9672 25.0657 11.0888 25.024 11.2141C24.4373 9.30308 24.4373 9.30308 24.6555 8.2666Z" fill="#B1DFF3"/>
<path d="M19.8639 3.35653C20.3108 3.3153 20.5423 3.32042 20.9294 3.55945C21.0362 3.65206 21.1431 3.74468 21.2532 3.84009C21.4265 3.9897 21.4265 3.9897 21.6034 4.14233C22.1043 4.6018 22.587 5.07621 23.057 5.56713C23.0165 5.68871 22.9759 5.81029 22.9342 5.93556C22.4913 5.565 22.0696 5.19843 21.6754 4.77653C21.2181 4.30668 20.6889 3.98517 20.1292 3.64916C20.0416 3.59312 19.9541 3.53708 19.8639 3.47934C19.8639 3.43881 19.8639 3.39828 19.8639 3.35653Z" fill="#CAE3EE"/>
<path d="M16.9132 1.75732C17.885 1.97161 18.8001 2.27482 19.615 2.86262C19.7757 3.13175 19.7757 3.13175 19.8606 3.35387C19.3268 3.18025 18.8028 2.9888 18.2794 2.78587C18.1379 2.73109 17.9964 2.67632 17.8505 2.61988C17.7438 2.5784 17.6371 2.53692 17.5272 2.49419C17.5272 2.41314 17.5272 2.33208 17.5272 2.24857C17.1625 2.18778 17.1625 2.18778 16.7903 2.12576C16.8309 2.00417 16.8714 1.88259 16.9132 1.75732Z" fill="#D8ECF3"/>
<path d="M11.6377 0.0413121C12.1622 0.0341954 12.6867 0.0298196 13.2112 0.0259607C13.3605 0.0239027 13.5097 0.0218446 13.6634 0.0197242C13.8063 0.0189326 13.9491 0.0181411 14.0963 0.0173255C14.2941 0.0153961 14.2941 0.0153961 14.4959 0.0134277C14.8308 0.0413121 14.8308 0.0413121 15.1992 0.286934C15.0764 0.409745 15.0764 0.409745 14.7468 0.423687C14.6034 0.423044 14.46 0.422401 14.3122 0.421739C14.1575 0.421343 14.0027 0.420947 13.8433 0.420539C13.6787 0.419513 13.514 0.418473 13.3494 0.417421C13.1843 0.416805 13.0192 0.416245 12.8541 0.415742C12.4486 0.414289 12.0432 0.412264 11.6377 0.409745C11.6377 0.288162 11.6377 0.166579 11.6377 0.0413121Z" fill="#0D215A"/>
<path d="M7.97602 11.569C8.08668 11.5712 8.19734 11.5734 8.31136 11.5757C8.39574 11.5785 8.48012 11.5814 8.56705 11.5843C8.60758 11.7059 8.64811 11.8275 8.68986 11.9527C8.59868 11.9705 8.50749 11.9882 8.41354 12.0065C8.13451 12.0635 7.86021 12.1272 7.58456 12.1984C7.49844 12.206 7.41232 12.2136 7.32359 12.2214C7.047 12.3094 7.047 12.3094 6.93981 12.6973C6.89421 12.8759 6.89421 12.8759 6.8477 13.058C6.76664 13.058 6.68559 13.058 6.60208 13.058C6.56155 13.2201 6.52102 13.3823 6.47926 13.5493C6.42767 12.8011 6.47102 12.4293 6.97051 11.8299C7.37747 11.5586 7.50407 11.5567 7.97602 11.569Z" fill="#092458"/>
<path d="M21.5808 23.2498C21.6618 23.3308 21.7429 23.4119 21.8264 23.4954C20.3971 24.6679 20.3971 24.6679 19.6158 24.9691C19.4942 24.9286 19.3726 24.8881 19.2474 24.8463C19.8623 24.1465 20.6946 23.5451 21.5808 23.2498Z" fill="#0E366F"/>
<path d="M19.9314 13.2754C20.0517 13.2771 20.172 13.2789 20.296 13.2807C20.4163 13.2815 20.5366 13.2823 20.6606 13.2831C20.9714 13.3037 20.9714 13.3037 21.217 13.4265C21.217 13.7102 21.217 13.9939 21.217 14.2862C21.0955 14.2862 20.9739 14.2862 20.8486 14.2862C20.7258 14.1634 20.7258 14.1634 20.7181 13.7873C20.7219 13.6087 20.7219 13.6087 20.7258 13.4265C20.3294 13.5444 20.1435 13.6305 19.8891 13.9638C19.7096 14.3018 19.7096 14.3018 19.7433 14.7774C19.6217 14.7369 19.5001 14.6964 19.3749 14.6546C19.3682 14.4756 19.3635 14.2964 19.3595 14.1173C19.3553 13.9677 19.3553 13.9677 19.3509 13.8151C19.388 13.4037 19.5303 13.3119 19.9314 13.2754Z" fill="#3ABFE8"/>
<path d="M6.35458 24.3545C6.4711 24.3976 6.58762 24.4406 6.70767 24.485C7.07556 24.6431 7.07556 24.6431 7.33707 24.4773C7.54534 24.5536 7.54534 24.5536 7.7909 24.6802C7.87876 24.725 7.96662 24.7697 8.05715 24.8158C8.14881 24.8636 8.24047 24.9115 8.33491 24.9609C8.42752 25.0083 8.52014 25.0557 8.61555 25.1046C8.84483 25.2221 9.0735 25.3408 9.30205 25.4598C9.30205 25.5408 9.30205 25.6219 9.30205 25.7054C8.58318 25.6441 8.05058 25.4303 7.41383 25.099C7.32502 25.0548 7.2362 25.0105 7.1447 24.9649C6.49411 24.6336 6.49411 24.6336 6.35458 24.3545Z" fill="#183766"/>
<path d="M0.338057 12.4429C0.378585 12.4429 0.419113 12.4429 0.460868 12.4429C0.742858 14.8952 0.742858 14.8952 0.706491 16.0044C0.584908 15.9639 0.463325 15.9233 0.338057 15.8816C0.21994 15.1888 0.196657 14.5188 0.199895 13.8168C0.19942 13.7115 0.198945 13.6061 0.198456 13.4976C0.198614 13.397 0.198772 13.2963 0.198936 13.1927C0.199074 13.1017 0.199213 13.0107 0.199355 12.9169C0.215246 12.6885 0.215246 12.6885 0.338057 12.4429Z" fill="#06164A"/>
<path d="M2.30009 13.5498C2.38115 13.5903 2.4622 13.6309 2.54572 13.6726C2.54429 13.8268 2.54287 13.981 2.5414 14.1399C2.53475 15.1799 2.53302 16.2009 2.66853 17.2341C2.54694 17.2747 2.42536 17.3152 2.30009 17.3569C2.16588 16.9543 2.1614 16.6552 2.16097 16.2315C2.16081 16.0836 2.16066 15.9358 2.16049 15.7834C2.16097 15.6289 2.16144 15.4744 2.16193 15.3152C2.16146 15.1598 2.16098 15.0043 2.16049 14.8441C2.16065 14.6966 2.16081 14.549 2.16097 14.397C2.16111 14.2611 2.16125 14.1251 2.16139 13.9851C2.17728 13.6726 2.17728 13.6726 2.30009 13.5498Z" fill="#74B4D9"/>
<path d="M7.58221 13.3042C7.98135 13.2658 7.98135 13.2658 8.44189 13.3042C8.74124 13.6112 8.74124 13.6112 8.93313 13.9182C8.52786 13.9993 8.12258 14.0803 7.70502 14.1639C7.62397 14.407 7.54291 14.6502 7.4594 14.9007C7.37835 14.8602 7.29729 14.8197 7.21378 14.7779C7.171 14.179 7.28539 13.8236 7.58221 13.3042Z" fill="#28C6E8"/>
<path d="M13.5998 1.51467C14.0373 1.5111 14.4748 1.50892 14.9123 1.507C15.0979 1.50546 15.0979 1.50546 15.2872 1.50388C15.4071 1.50348 15.5271 1.50309 15.6506 1.50268C15.8156 1.50172 15.8156 1.50172 15.9839 1.50073C16.3061 1.51487 16.6016 1.56597 16.9157 1.63749C16.8751 1.7996 16.8346 1.96171 16.7928 2.12873C17.1576 2.18952 17.1576 2.18952 17.5297 2.25154C17.1737 2.358 16.9016 2.37998 16.5338 2.33262C16.3949 2.3154 16.3949 2.3154 16.2532 2.29783C16.11 2.27872 16.11 2.27872 15.9639 2.25922C15.8665 2.24695 15.7692 2.23468 15.6688 2.22204C15.4294 2.19174 15.19 2.16034 14.9507 2.12873C14.9507 2.0882 14.9507 2.04767 14.9507 2.00592C15.3762 1.94513 15.3762 1.94513 15.8104 1.88311C15.8104 1.84258 15.8104 1.80205 15.8104 1.7603C15.0809 1.71977 14.3514 1.67924 13.5998 1.63749C13.5998 1.59696 13.5998 1.55643 13.5998 1.51467Z" fill="#B8E3F2"/>
<path d="M8.68711 11.707C8.76816 11.7476 8.84922 11.7881 8.93273 11.8298C8.97622 11.9929 9.01688 12.1568 9.05554 12.3211C9.17712 12.5035 9.17712 12.5035 9.30116 12.6895C9.30116 12.8111 9.30116 12.9327 9.30116 13.058C9.22011 13.058 9.13905 13.058 9.05554 13.058C9.05554 12.9769 9.05554 12.8958 9.05554 12.8123C8.8529 12.8529 8.65027 12.8934 8.44149 12.9351C8.40096 12.8541 8.36043 12.773 8.31868 12.6895C8.23762 12.6718 8.15657 12.6541 8.07305 12.6358C7.992 12.613 7.91094 12.5902 7.82743 12.5667C7.7869 12.4451 7.74638 12.3235 7.70462 12.1983C7.95024 11.9527 7.95024 11.9527 8.33403 11.9373C8.45054 11.9424 8.56706 11.9474 8.68711 11.9527C8.68711 11.8716 8.68711 11.7905 8.68711 11.707Z" fill="#154F82"/>
<path d="M21.3371 12.9355C21.3776 12.9355 21.4181 12.9355 21.4599 12.9355C21.4599 13.2192 21.4599 13.5029 21.4599 13.7952C21.5409 13.8358 21.622 13.8763 21.7055 13.918C21.464 14.4772 21.2506 14.8296 20.723 15.1461C20.3808 15.2363 20.1001 15.2572 19.7405 15.269C19.6595 15.1879 19.5784 15.1068 19.4949 15.0233C19.576 14.9423 19.657 14.8612 19.7405 14.7777C19.9115 14.7853 19.9115 14.7853 20.0859 14.7931C20.5776 14.7738 20.7444 14.6236 21.0914 14.2865C21.2325 14.0045 21.252 13.7858 21.2833 13.4728C21.2936 13.3725 21.3039 13.2721 21.3145 13.1687C21.322 13.0918 21.3294 13.0148 21.3371 12.9355Z" fill="#314A83"/>
<path d="M4.39255 21.1641C4.76204 21.328 4.99636 21.5034 5.26758 21.8011C5.77685 22.3293 6.36185 22.7254 6.97158 23.129C6.7557 23.2106 6.7557 23.2106 6.48034 23.2519C6.24335 23.1242 6.24335 23.1242 6.00444 22.9295C5.91943 22.8611 5.83442 22.7927 5.74683 22.7222C5.66466 22.6538 5.5825 22.5854 5.49785 22.515C5.42708 22.4593 5.35632 22.4035 5.28341 22.3461C4.93258 22.0662 4.6302 21.7926 4.39255 21.4097C4.39255 21.3286 4.39255 21.2476 4.39255 21.1641Z" fill="#5B8CC1"/>
<path d="M8.81165 11.8286C9.28729 12.009 9.44757 12.2376 9.67132 12.6883C9.72026 13.049 9.72026 13.049 9.71738 13.4252C9.71833 13.5493 9.71928 13.6734 9.72026 13.8013C9.66529 14.2065 9.53438 14.4429 9.30289 14.7761C9.18582 14.4003 9.18706 14.1403 9.25684 13.7552C9.33522 13.1595 9.20462 12.8498 8.93446 12.3199C8.88864 12.1574 8.84475 11.9941 8.81165 11.8286Z" fill="#083168"/>
<path d="M0.215298 11.0928C0.255826 11.0928 0.296353 11.0928 0.338109 11.0928C0.338109 11.2954 0.338109 11.498 0.338109 11.7068C0.419164 11.7068 0.50022 11.7068 0.583731 11.7068C0.583731 12.4363 0.583731 13.1658 0.583731 13.9174C0.543203 13.9174 0.502676 13.9174 0.46092 13.9174C0.420392 13.5122 0.379865 13.1069 0.338109 12.6893C0.297581 13.2972 0.257054 13.9051 0.215298 14.5315C0.17477 14.5315 0.134243 14.5315 0.0924869 14.5315C0.0889 14.0965 0.0867309 13.6616 0.0848112 13.2266C0.0837821 13.1039 0.0827531 12.9812 0.0816929 12.8548C0.0797012 12.2533 0.0871832 11.6839 0.215298 11.0928Z" fill="#445980"/>
<path d="M22.8137 21.9021C22.9353 21.9426 23.0568 21.9832 23.1821 22.0249C23.0025 22.4329 22.7758 22.7241 22.4683 23.0458C22.3455 23.178 22.3455 23.178 22.2202 23.313C21.954 23.4986 21.954 23.4986 21.6148 23.4655C21.5241 23.4359 21.4334 23.4063 21.3399 23.3758C21.8312 22.8846 22.3224 22.3933 22.8137 21.9021Z" fill="#194582"/>
<path d="M26.3744 15.5142C26.4024 16.1713 26.3932 16.8668 26.1288 17.4791C25.8736 17.6341 25.8736 17.6341 25.6375 17.7248C25.7973 16.2602 25.7973 16.2602 26.006 15.637C26.2516 15.5142 26.2516 15.5142 26.3744 15.5142Z" fill="#0E1F5E"/>
<path d="M20.4804 11.5827C20.7567 11.5444 20.7567 11.5444 21.0945 11.5827C21.5911 12.107 21.7244 12.4241 21.7162 13.1332C21.7151 13.2564 21.714 13.3796 21.7128 13.5065C21.7114 13.6011 21.71 13.6958 21.7085 13.7933C21.6275 13.7933 21.5464 13.7933 21.4629 13.7933C21.448 13.6972 21.4331 13.6011 21.4178 13.5021C21.3972 13.3779 21.3766 13.2536 21.3554 13.1256C21.3355 13.0016 21.3155 12.8776 21.295 12.7499C21.2565 12.5977 21.2565 12.5977 21.2173 12.4424C21.1362 12.4019 21.0552 12.3614 20.9717 12.3196C20.9311 12.198 20.8906 12.0764 20.8488 11.9512C20.6646 11.7464 20.6646 11.7464 20.4804 11.5827Z" fill="#092B58"/>
<path d="M1.56459 18.4617C1.84665 18.7437 2.00705 19.027 2.20167 19.3751C2.26927 19.494 2.33687 19.6129 2.40652 19.7354C2.54708 20.0582 2.54708 20.0582 2.42427 20.4266C1.93408 19.9773 1.59597 19.5623 1.31897 18.9529C1.41108 18.6536 1.41108 18.6536 1.56459 18.4617Z" fill="#0C1862"/>
<path d="M20.9709 4.33813C21.7345 4.46768 22.2518 5.11364 22.7594 5.65835C22.8176 5.74954 22.8759 5.84073 22.9359 5.93468C22.8954 6.05626 22.8548 6.17784 22.8131 6.30311C22.7521 6.24074 22.6912 6.17836 22.6284 6.1141C22.2122 5.69236 21.7964 5.28373 21.3393 4.90614C21.2178 4.79975 21.0962 4.69337 20.9709 4.58376C20.9709 4.5027 20.9709 4.42165 20.9709 4.33813Z" fill="#4A90BF"/>
<path d="M19.8614 11.707C19.902 11.7881 19.9425 11.8691 19.9842 11.9527C20.1058 11.9932 20.2274 12.0337 20.3527 12.0755C20.3527 12.197 20.3527 12.3186 20.3527 12.4439C20.6364 12.4844 20.9201 12.525 21.2124 12.5667C21.2529 12.8099 21.2934 13.053 21.3352 13.3036C21.2946 13.2225 21.2541 13.1415 21.2124 13.058C21.0086 13.0127 20.8037 12.9725 20.5983 12.9351C20.2682 12.843 20.2682 12.843 19.9842 12.6895C19.898 12.4866 19.816 12.2819 19.7386 12.0755C19.4909 11.9104 19.4909 11.9104 19.2474 11.8298C19.6158 11.707 19.6158 11.707 19.8614 11.707Z" fill="#156597"/>
<path d="M4.26933 3.60229C4.30986 3.68335 4.35039 3.76441 4.39214 3.84792C4.4732 3.88844 4.55425 3.92897 4.63776 3.97073C4.27302 4.33548 3.90827 4.70023 3.53247 5.07603C3.41088 4.95444 3.2893 4.83286 3.16403 4.70759C3.52878 4.34285 3.89353 3.9781 4.26933 3.60229Z" fill="#1E397B"/>
<path d="M8.93218 1.02232C8.5001 1.56711 7.97991 1.70027 7.33563 1.88199C7.38029 1.56539 7.40875 1.42862 7.66809 1.231C7.75342 1.19 7.83875 1.14899 7.92666 1.10675C8.01104 1.06416 8.09542 1.02158 8.18236 0.977701C8.48282 0.886838 8.63962 0.920416 8.93218 1.02232Z" fill="#0F2666"/>
<path d="M8.32767 14.155C8.50625 14.1588 8.50625 14.1588 8.68843 14.1627C8.58097 14.7461 8.58097 14.7461 8.44281 15.0224C7.85945 14.9149 7.85945 14.9149 7.58313 14.7768C7.87954 14.1642 7.87954 14.1642 8.32767 14.155Z" fill="#45DFF4"/>
<path d="M19.2545 11.9521C19.4603 11.9873 19.6652 12.028 19.8686 12.075C19.8686 12.2776 19.8686 12.4802 19.8686 12.689C19.6659 12.7701 19.4633 12.8511 19.2545 12.9346C19.1734 12.8536 19.0924 12.7725 19.0089 12.689C19.0771 12.1295 19.0771 12.1295 19.2545 11.9521Z" fill="#EBF1F7"/>
<path d="M0.585069 9.86426C0.666124 9.86426 0.747179 9.86426 0.830691 9.86426C0.858418 10.5297 0.765196 11.0647 0.585069 11.7064C0.504014 11.7064 0.422958 11.7064 0.339447 11.7064C0.332778 11.4915 0.328034 11.2766 0.324095 11.0617C0.319821 10.8821 0.319821 10.8821 0.31546 10.699C0.339615 10.3531 0.407522 10.1578 0.585069 9.86426Z" fill="#0E1F58"/>
<path d="M7.70462 13.183C7.90153 13.173 8.09858 13.1658 8.29565 13.1599C8.46021 13.1535 8.46021 13.1535 8.6281 13.147C8.93273 13.183 8.93273 13.183 9.15437 13.3451C9.37833 13.6598 9.34102 13.9136 9.30116 14.2883C9.22011 14.3693 9.13905 14.4504 9.05554 14.5339C9.02261 14.4174 8.98968 14.3008 8.95576 14.1808C8.84064 13.766 8.84064 13.766 8.44149 13.5514C8.44149 13.4703 8.44149 13.3893 8.44149 13.3058C8.19832 13.3058 7.95515 13.3058 7.70462 13.3058C7.70462 13.2652 7.70462 13.2247 7.70462 13.183Z" fill="#2C89B7"/>
<path d="M16.5538 24.8471C16.3511 24.8877 16.1485 24.9282 15.9397 24.97C15.9397 25.051 15.9397 25.1321 15.9397 25.2156C14.9671 25.2156 13.9944 25.2156 12.9922 25.2156C12.9922 25.175 12.9922 25.1345 12.9922 25.0928C13.1858 25.0837 13.1858 25.0837 13.3832 25.0745C14.5017 25.0247 14.5017 25.0247 15.602 24.8318C16.0329 24.7313 16.158 24.7228 16.5538 24.8471Z" fill="#B8E3F6"/>
<path d="M7.21475 12.0759C7.47572 12.122 7.47572 12.122 7.70599 12.1987C7.72134 12.4904 7.72134 12.4904 7.70599 12.8128C7.62494 12.8938 7.54388 12.9749 7.46037 13.0584C7.1994 13.0124 7.1994 13.0124 6.96912 12.9356C6.95377 12.6439 6.95377 12.6439 6.96912 12.3215C7.05018 12.2405 7.13124 12.1594 7.21475 12.0759Z" fill="#E7F1F7"/>
<path d="M22.933 5.93335C23.2677 5.9792 23.4007 6.03061 23.6334 6.28307C23.6961 6.37284 23.7588 6.4626 23.8234 6.55508C23.8873 6.64516 23.9513 6.73524 24.0172 6.82805C24.0647 6.89755 24.1122 6.96704 24.1611 7.03865C24.0395 7.22102 24.0395 7.22102 23.9155 7.40708C23.9155 7.32603 23.9155 7.24497 23.9155 7.16146C23.7939 7.12093 23.6723 7.0804 23.547 7.03865C23.3767 6.78487 23.3767 6.78487 23.217 6.47832C23.1633 6.37685 23.1096 6.27537 23.0544 6.17082C23.0143 6.09245 22.9742 6.01409 22.933 5.93335Z" fill="#C9E9F5"/>
<path d="M21.4614 4.46191C22.1968 4.62334 22.5709 5.02831 23.058 5.56721C23.0174 5.6888 22.9769 5.81038 22.9352 5.93565C22.3793 5.48391 21.9043 5.02551 21.4614 4.46191Z" fill="#C4E3EF"/>
<path d="M12.9922 17.969C13.5191 18.0095 14.046 18.05 14.5888 18.0918C14.5888 18.2134 14.5888 18.335 14.5888 18.4602C14.143 18.4602 13.6972 18.4602 13.2379 18.4602C13.1568 18.2981 13.0758 18.136 12.9922 17.969Z" fill="#133566"/>
<path d="M23.3065 4.83081C23.5751 4.83081 23.5751 4.83081 23.9205 4.95362C24.1615 5.26164 24.3503 5.5918 24.5346 5.93611C24.413 6.01717 24.2914 6.09822 24.1662 6.18173C24.0453 6.02613 23.9252 5.86994 23.8054 5.71352C23.7384 5.6266 23.6715 5.53969 23.6025 5.45014C23.4293 5.19924 23.4293 5.19924 23.3065 4.83081Z" fill="#173579"/>
<path d="M5.62238 23.4973C5.86893 23.6312 6.11435 23.7672 6.35925 23.9041C6.49603 23.9796 6.63281 24.0552 6.77374 24.133C6.88012 24.2069 6.98651 24.2808 7.09612 24.357C7.09612 24.4786 7.09612 24.6002 7.09612 24.7254C5.9178 24.2294 5.9178 24.2294 5.49957 23.8657C5.5401 23.7442 5.58063 23.6226 5.62238 23.4973Z" fill="#113A74"/>
<path d="M6.35411 12.814C6.43517 12.895 6.51622 12.9761 6.59973 13.0596C6.85865 13.0205 6.85865 13.0205 7.09098 12.9368C7.09098 13.0584 7.09098 13.1799 7.09098 13.3052C7.00992 13.3052 6.92887 13.3052 6.84536 13.3052C6.80483 13.6294 6.7643 13.9537 6.72255 14.2877C6.64149 14.2877 6.56043 14.2877 6.47692 14.2877C6.35894 13.9337 6.34112 13.7107 6.34644 13.3436C6.34754 13.2443 6.34865 13.1451 6.34979 13.0428C6.35122 12.9673 6.35264 12.8918 6.35411 12.814Z" fill="#1E518B"/>
<path d="M7.83063 25.0925C8.00727 25.1066 8.1838 25.1223 8.36025 25.1386C8.50772 25.1514 8.50772 25.1514 8.65816 25.1645C8.93593 25.2153 8.93593 25.2153 9.30436 25.461C9.30436 25.542 9.30436 25.6231 9.30436 25.7066C8.77409 25.6442 8.31782 25.5596 7.83063 25.3382C7.83063 25.2571 7.83063 25.176 7.83063 25.0925Z" fill="#132956"/>
<path d="M6.11249 3.47852C6.19354 3.51904 6.2746 3.55957 6.35811 3.60133C6.13873 3.80676 5.91863 4.0113 5.698 4.21538C5.60444 4.30324 5.60444 4.30324 5.50899 4.39288C5.03501 4.82944 5.03501 4.82944 4.76157 4.82944C4.80781 4.50144 4.85741 4.3635 5.10265 4.13335C5.1902 4.07177 5.27775 4.01018 5.36795 3.94673C5.45518 3.8842 5.5424 3.82167 5.63228 3.75724C5.86687 3.60133 5.86687 3.60133 6.11249 3.47852Z" fill="#B9EDF4"/>
<path d="M6.96952 11.8286C7.05058 11.9502 7.13163 12.0718 7.21514 12.197C7.04628 12.6499 7.04628 12.6499 6.84671 13.0567C6.76565 13.0567 6.6846 13.0567 6.60109 13.0567C6.56056 13.2188 6.52003 13.3809 6.47828 13.548C6.42525 12.7791 6.48719 12.4315 6.96952 11.8286Z" fill="#0F366E"/>
<path d="M25.511 17.4783C25.5515 17.5593 25.592 17.6404 25.6338 17.7239C25.7553 17.6834 25.8769 17.6428 26.0022 17.6011C25.8533 18.0585 25.6941 18.5072 25.511 18.952C25.3894 18.8709 25.2678 18.7899 25.1425 18.7064C25.2641 18.3011 25.3857 17.8958 25.511 17.4783Z" fill="#223D79"/>
<path d="M7.21558 1.5144C7.29664 1.67651 7.37769 1.83863 7.4612 2.00565C7.00316 2.25549 6.76498 2.37408 6.23309 2.37408C6.37248 1.96985 6.47784 1.88333 6.8625 1.66792C6.97902 1.61726 7.09553 1.5666 7.21558 1.5144Z" fill="#123171"/>
<path d="M18.5155 24.4793C17.9487 24.895 17.3512 24.9815 16.6733 25.0933C17.0549 24.5956 17.4343 24.5028 18.0214 24.3809C18.2699 24.3565 18.2699 24.3565 18.5155 24.4793Z" fill="#D9F0FA"/>
<path d="M0.705095 15.6355C0.998703 16.1053 1.01945 16.5685 1.07353 17.1092C0.992473 17.1092 0.911417 17.1092 0.827906 17.1092C0.529278 16.6957 0.459473 16.5279 0.459473 16.0039C0.540528 16.0039 0.621583 16.0039 0.705095 16.0039C0.705095 15.8823 0.705095 15.7608 0.705095 15.6355Z" fill="#203467"/>
<path d="M20.9692 14.2859C20.8881 14.448 20.8071 14.6102 20.7236 14.7772C20.4399 14.7772 20.1562 14.7772 19.8639 14.7772C19.8639 14.6556 19.8639 14.534 19.8639 14.4087C20.2847 14.21 20.5247 14.1213 20.9692 14.2859Z" fill="#58E6F8"/>
<path d="M20.2331 11.2547C20.3192 11.2644 20.4053 11.274 20.494 11.284C20.7243 11.3392 20.7243 11.3392 20.9699 11.5848C20.7729 11.6055 20.5759 11.6259 20.3789 11.6462C20.2692 11.6576 20.1595 11.669 20.0464 11.6807C19.7418 11.7076 19.7418 11.7076 19.3734 11.7076C19.4139 11.586 19.4544 11.4644 19.4962 11.3392C19.7871 11.1937 19.9146 11.2155 20.2331 11.2547Z" fill="#143568"/>
<path d="M20.6045 2.12866C21.044 2.33151 21.4333 2.59324 21.8326 2.86553C21.4358 2.99782 21.3499 3.00965 20.973 2.86553C20.7633 2.70825 20.5575 2.54533 20.3589 2.37428C20.44 2.37428 20.521 2.37428 20.6045 2.37428C20.6045 2.29323 20.6045 2.21217 20.6045 2.12866Z" fill="#1B3B77"/>
<path d="M20.0745 13.1727C20.2234 13.1744 20.2234 13.1744 20.3753 13.1761C20.4885 13.1782 20.4885 13.1782 20.6041 13.1804C20.6041 13.2209 20.6041 13.2614 20.6041 13.3032C20.3522 13.3312 20.1004 13.3592 19.8485 13.3871C19.6202 13.4038 19.6202 13.4038 19.4988 13.5488C19.4705 13.7143 19.4483 13.8809 19.4297 14.0477C19.4031 14.2871 19.4031 14.2871 19.376 14.5313C19.2949 14.4908 19.2139 14.4502 19.1304 14.4085C19.1304 14.0437 19.1304 13.679 19.1304 13.3032C19.4843 13.1852 19.7074 13.1674 20.0745 13.1727Z" fill="#3397C5"/>
<path d="M2.42544 9.00464C2.60349 9.29215 2.67636 9.44426 2.64132 9.78564C2.61567 9.88253 2.59003 9.97941 2.5636 10.0792C2.53859 10.1774 2.51358 10.2755 2.4878 10.3767C2.46722 10.4508 2.44664 10.5248 2.42544 10.6012C2.30386 10.6012 2.18227 10.6012 2.05701 10.6012C2.11588 10.0222 2.17593 9.53693 2.42544 9.00464Z" fill="#B5DCED"/>
<path d="M24.4104 5.93335C24.8614 6.31161 24.9714 6.57789 25.0244 7.16146C24.9028 7.22225 24.9028 7.22225 24.7788 7.28427C24.6929 7.12902 24.6088 6.97274 24.5255 6.81605C24.455 6.68568 24.455 6.68568 24.383 6.55268C24.2876 6.30178 24.2876 6.30178 24.4104 5.93335Z" fill="#0B1D62"/>
<path d="M9.18195 25.3401C9.91145 25.5225 9.91145 25.5225 10.6557 25.7085C10.6557 25.749 10.6557 25.7896 10.6557 25.8313C10.4589 25.8587 10.2618 25.8838 10.0647 25.9081C9.95495 25.9223 9.84524 25.9366 9.73221 25.9513C9.42758 25.9541 9.42758 25.9541 9.05914 25.7085C9.1402 25.7085 9.22125 25.7085 9.30477 25.7085C9.26424 25.5869 9.22371 25.4654 9.18195 25.3401Z" fill="#284870"/>
<path d="M6.72771 8.2666C6.76824 8.2666 6.80876 8.2666 6.85052 8.2666C6.85383 8.48663 6.85621 8.70667 6.85819 8.92671C6.85962 9.04924 6.86104 9.17178 6.86251 9.29802C6.85052 9.61752 6.85052 9.61752 6.72771 9.86315C6.64665 9.86315 6.5656 9.86315 6.48209 9.86315C6.47543 9.66618 6.47068 9.46915 6.46673 9.27212C6.46388 9.16241 6.46104 9.0527 6.4581 8.93966C6.48209 8.63503 6.48209 8.63503 6.72771 8.2666Z" fill="#E1F9F8"/>
<path d="M5.7439 22.3926C6.1834 22.5954 6.57266 22.8572 6.97202 23.1294C6.75518 23.2096 6.75518 23.2096 6.48077 23.2523C6.24474 23.1299 6.24474 23.1299 6.02023 22.9529C5.94487 22.8948 5.86952 22.8367 5.79188 22.7768C5.73552 22.7311 5.67916 22.6853 5.62109 22.6382C5.66162 22.5571 5.70215 22.4761 5.7439 22.3926Z" fill="#75A6D8"/>
<path d="M25.3934 18.5833C25.3013 19.4122 25.3013 19.4122 25.0249 19.6886C24.9033 19.6075 24.7818 19.5264 24.6565 19.4429C25.0589 18.5833 25.0589 18.5833 25.3934 18.5833Z" fill="#133374"/>
<path d="M2.30582 13.5498C2.38688 13.5903 2.46794 13.6309 2.55145 13.6726C2.51092 14.3616 2.47039 15.0506 2.42864 15.7604C2.38811 15.7604 2.34758 15.7604 2.30582 15.7604C2.28202 15.415 2.25911 15.0696 2.23674 14.7242C2.22986 14.6256 2.22297 14.5271 2.21588 14.4256C2.20001 14.1748 2.19098 13.9237 2.18301 13.6726C2.22354 13.6321 2.26407 13.5916 2.30582 13.5498Z" fill="#81BFE2"/>
<path d="M18.8836 12.4429C18.9242 12.4429 18.9647 12.4429 19.0065 12.4429C18.9659 12.8887 18.9254 13.3345 18.8836 13.7938C18.7621 13.7127 18.6405 13.6317 18.5152 13.5482C18.4539 13.1599 18.4831 12.9857 18.6918 12.6501C18.7551 12.5817 18.8184 12.5133 18.8836 12.4429Z" fill="#032A68"/>
<path d="M1.56459 18.4617C1.88962 18.7867 2.00664 19.1448 2.17865 19.567C2.09759 19.567 2.01654 19.567 1.93302 19.567C1.93302 19.4859 1.93302 19.4049 1.93302 19.3213C1.81144 19.3619 1.68986 19.4024 1.56459 19.4442C1.48354 19.201 1.40248 18.9578 1.31897 18.7073C1.40003 18.6262 1.48108 18.5452 1.56459 18.4617Z" fill="#19256C"/>
<path d="M0.831102 8.76172C0.912157 8.84277 0.993212 8.92383 1.07672 9.00734C1.07385 9.29998 1.07385 9.29998 1.03067 9.63675C1.01706 9.74852 1.00344 9.86028 0.989413 9.97544C0.977698 10.0612 0.965983 10.147 0.953913 10.2355C0.913385 10.1139 0.872858 9.99229 0.831102 9.86702C0.750047 9.86702 0.668991 9.86702 0.58548 9.86702C0.666535 9.50227 0.74759 9.13752 0.831102 8.76172Z" fill="#1F336B"/>
<path d="M25.0279 6.79517C25.3353 7.15602 25.4539 7.43121 25.5191 7.90047C25.357 7.85994 25.1949 7.81941 25.0279 7.77765C24.9297 7.37398 24.8932 7.19919 25.0279 6.79517Z" fill="#1C2C65"/>
<path d="M7.67858 2.71143C7.76977 2.72156 7.86096 2.73169 7.95491 2.74213C7.99544 2.86371 8.03596 2.98529 8.07772 3.11056C7.67244 3.15109 7.26717 3.19162 6.84961 3.23337C7.25772 2.74969 7.25772 2.74969 7.67858 2.71143Z" fill="#D2EFF4"/>
<path d="M9.05745 14.533C9.1385 14.6545 9.21956 14.7761 9.30307 14.9014C8.65312 15.4002 8.65312 15.4002 8.21312 15.3619C8.127 15.3315 8.04088 15.3011 7.95215 15.2698C8.02054 15.2394 8.08893 15.209 8.15939 15.1777C8.49248 14.9977 8.76711 14.7749 9.05745 14.533Z" fill="#2D4D87"/>
<path d="M7.46234 13.3044C7.58516 13.5501 7.58516 13.5501 7.51655 13.8158C7.48093 13.9156 7.44531 14.0153 7.40861 14.1181C7.37331 14.2184 7.33801 14.3188 7.30163 14.4222C7.27361 14.4992 7.24559 14.5761 7.21672 14.6554C7.13567 14.6148 7.05461 14.5743 6.9711 14.5326C6.9711 14.2489 6.9711 13.9652 6.9711 13.6729C7.09268 13.6729 7.21427 13.6729 7.33953 13.6729C7.38006 13.5513 7.42059 13.4297 7.46234 13.3044Z" fill="#2998C9"/>
<path d="M4.88379 3.10962C5.00537 3.15015 5.12696 3.19067 5.25222 3.23243C5.02963 3.53946 5.02963 3.53946 4.76098 3.84649C4.6394 3.84649 4.51781 3.84649 4.39255 3.84649C4.43093 3.61621 4.43093 3.61621 4.51536 3.35524C4.63694 3.27419 4.75852 3.19313 4.88379 3.10962Z" fill="#122E72"/>
<path d="M14.5853 25.9521C14.9906 25.9521 15.3958 25.9521 15.8134 25.9521C15.8134 26.0332 15.8134 26.1143 15.8134 26.1978C15.2663 26.2586 15.2663 26.2586 14.7081 26.3206C14.6676 26.199 14.6271 26.0774 14.5853 25.9521Z" fill="#072351"/>
<path d="M3.16403 21.5308C3.56557 21.6 3.75669 21.7149 4.02371 22.022C3.98318 22.1436 3.94265 22.2652 3.9009 22.3904C3.65022 22.192 3.40465 21.9869 3.16403 21.7764C3.16403 21.6953 3.16403 21.6143 3.16403 21.5308Z" fill="#082063"/>
<path d="M12.3739 17.6021C12.6576 17.6831 12.9412 17.7642 13.2335 17.8477C13.112 17.9085 13.112 17.9085 12.9879 17.9705C13.0284 18.0921 13.069 18.2136 13.1107 18.3389C12.4046 18.124 12.4046 18.124 12.1282 17.8477C12.2093 17.8477 12.2903 17.8477 12.3739 17.8477C12.3739 17.7666 12.3739 17.6856 12.3739 17.6021Z" fill="#1E4774"/>
<path d="M0.583574 14.7761C0.624101 14.7761 0.664629 14.7761 0.706385 14.7761C0.706385 15.1814 0.706385 15.5867 0.706385 16.0042C0.584802 15.9637 0.463219 15.9232 0.337952 15.8814C0.445411 15.0524 0.445411 15.0524 0.583574 14.7761Z" fill="#182351"/>
<path d="M8.68843 11.7086C8.68843 11.7896 8.68843 11.8707 8.68843 11.9542C8.59724 11.9719 8.50605 11.9896 8.4121 12.0079C8.13329 12.0649 7.85852 12.1284 7.58313 12.1998C7.66756 11.9619 7.66756 11.9619 7.82875 11.7086C8.18237 11.5936 8.35133 11.54 8.68843 11.7086Z" fill="#083C73"/>
<path d="M10.2867 6.05615C10.0688 6.332 9.96941 6.41855 9.61364 6.46057C9.44907 6.45416 9.44907 6.45416 9.28118 6.44761C9.11519 6.44263 9.11519 6.44263 8.94585 6.43754C8.86147 6.43327 8.77709 6.42899 8.69016 6.42459C8.69016 6.38406 8.69016 6.34353 8.69016 6.30178C8.90988 6.23674 9.12999 6.17302 9.35026 6.10988C9.4728 6.07426 9.59533 6.03864 9.72158 6.00194C10.0411 5.93334 10.0411 5.93334 10.2867 6.05615Z" fill="#DCF7FB"/>
<path d="M20.9709 4.33813C21.3253 4.38702 21.4403 4.43517 21.6771 4.71424C21.7277 4.79277 21.7784 4.87129 21.8306 4.95219C21.7495 5.03325 21.6685 5.1143 21.585 5.19781C21.3751 4.99844 21.1706 4.79337 20.9709 4.58376C20.9709 4.5027 20.9709 4.42165 20.9709 4.33813Z" fill="#5095C5"/>
<path d="M6.72492 13.9187C6.93996 14.2413 7.14092 14.5681 7.33898 14.9012C7.2174 14.9417 7.09581 14.9822 6.97054 15.024C6.77865 14.8168 6.77865 14.8168 6.60211 14.5328C6.64049 14.195 6.64049 14.195 6.72492 13.9187Z" fill="#103F78"/>
<path d="M8.32565 12.5667C8.60935 12.5667 8.89304 12.5667 9.18533 12.5667C9.22586 12.7288 9.26639 12.8909 9.30814 13.0579C9.22709 13.0579 9.14603 13.0579 9.06252 13.0579C9.06252 12.9768 9.06252 12.8958 9.06252 12.8123C8.85988 12.8528 8.65724 12.8933 8.44846 12.9351C8.40794 12.8135 8.36741 12.6919 8.32565 12.5667Z" fill="#1D608F"/>
<path d="M7.70462 12.3213C7.74515 12.4023 7.78568 12.4834 7.82743 12.5669C8.13782 12.6474 8.13782 12.6474 8.44149 12.6897C8.44149 12.7708 8.44149 12.8518 8.44149 12.9353C8.19832 12.9759 7.95515 13.0164 7.70462 13.0582C7.70462 12.815 7.70462 12.5718 7.70462 12.3213Z" fill="#2C6D98"/>
<path d="M22.933 6.05713C23.2278 6.41093 23.4823 6.74046 23.6698 7.16243C23.5483 7.16243 23.4267 7.16243 23.3014 7.16243C22.9944 6.75309 22.933 6.58116 22.933 6.05713Z" fill="#60A2CA"/>
<path d="M20.2374 3.84766C20.6903 3.90886 20.9257 3.98283 21.2199 4.3389C21.1388 4.3389 21.0578 4.3389 20.9743 4.3389C20.9337 4.41996 20.8932 4.50101 20.8515 4.58452C20.6418 4.42725 20.4371 4.26304 20.2374 4.09328C20.2374 4.01222 20.2374 3.93117 20.2374 3.84766Z" fill="#66A8D0"/>
<path d="M15.936 16.9878C16.0576 16.9878 16.1792 16.9878 16.3045 16.9878C16.2352 17.3893 16.1203 17.5804 15.8132 17.8475C15.6916 17.8069 15.5701 17.7664 15.4448 17.7247C15.5258 17.6259 15.6069 17.5271 15.6904 17.4253C15.9486 17.161 15.9486 17.161 15.936 16.9878Z" fill="#0E356B"/>
<path d="M8.44266 13.426C8.80639 13.5013 8.98064 13.58 9.30233 13.7945C9.26181 14.0376 9.22128 14.2808 9.17952 14.5313C9.139 14.5313 9.09847 14.5313 9.05671 14.5313C9.02378 14.4173 8.99086 14.3034 8.95693 14.1859C8.82196 13.8236 8.73443 13.6648 8.44266 13.426Z" fill="#2C9BC8"/>
<path d="M22.69 4.21655C23.0881 4.2596 23.2568 4.2856 23.5266 4.59266C23.5747 4.67118 23.6229 4.74971 23.6725 4.83061C23.2743 4.78756 23.1057 4.76156 22.8358 4.4545C22.7877 4.37598 22.7396 4.29745 22.69 4.21655Z" fill="#072169"/>
<path d="M24.1667 20.3044C24.2478 20.3044 24.3288 20.3044 24.4123 20.3044C24.4123 20.4666 24.4123 20.6287 24.4123 20.7957C24.1692 20.9173 23.926 21.0389 23.6755 21.1641C23.8074 20.8061 23.8938 20.5773 24.1667 20.3044Z" fill="#092865"/>
<path d="M7.58442 13.3044C7.86811 13.3044 8.15181 13.3044 8.4441 13.3044C8.40357 13.3855 8.36304 13.4666 8.32129 13.5501C8.03709 13.6398 7.75043 13.7222 7.46161 13.7957C7.50214 13.6336 7.54266 13.4715 7.58442 13.3044Z" fill="#32AFDA"/>
<path d="M19.0089 12.6902C19.171 12.8118 19.3331 12.9334 19.5001 13.0586C19.4191 13.1397 19.338 13.2207 19.2545 13.3042C19.2053 13.5895 19.1637 13.8762 19.1317 14.1639C19.0912 14.1639 19.0506 14.1639 19.0089 14.1639C19.0089 13.6776 19.0089 13.1913 19.0089 12.6902Z" fill="#2572A7"/>
<path d="M19.8614 11.707C19.902 11.7881 19.9425 11.8691 19.9842 11.9527C20.1058 11.9932 20.2274 12.0337 20.3527 12.0755C20.3527 12.197 20.3527 12.3186 20.3527 12.4439C20.2311 12.4439 20.1095 12.4439 19.9842 12.4439C19.9032 12.3223 19.8221 12.2007 19.7386 12.0755C19.4869 11.929 19.4869 11.929 19.2474 11.8298C19.6158 11.707 19.6158 11.707 19.8614 11.707Z" fill="#1E5889"/>
<path d="M2.17923 6.54761C2.21976 6.66919 2.26029 6.79077 2.30204 6.91604C2.1255 7.18469 2.1255 7.18469 1.93361 7.40728C1.93361 7.32623 1.93361 7.24517 1.93361 7.16166C1.85256 7.16166 1.7715 7.16166 1.68799 7.16166C1.72637 6.92372 1.72637 6.92372 1.8108 6.67042C1.93238 6.62989 2.05397 6.58936 2.17923 6.54761Z" fill="#193977"/>
<path d="M18.3924 2.86426C19.0985 2.97172 19.0985 2.97172 19.3749 3.10988C19.3749 3.19094 19.3749 3.27199 19.3749 3.3555C19.0218 3.31712 19.0218 3.31712 18.638 3.23269C18.5569 3.11111 18.4759 2.98953 18.3924 2.86426Z" fill="#6BAACE"/>
<path d="M9.42702 0.654785C9.34597 0.857423 9.26491 1.06006 9.1814 1.26884C9.05982 1.26884 8.93823 1.26884 8.81297 1.26884C8.77244 1.10673 8.73191 0.944619 8.69016 0.777596C9.05859 0.654785 9.05859 0.654785 9.42702 0.654785Z" fill="#2D477E"/>
<path d="M21.3413 12.9355C21.3818 12.9355 21.4223 12.9355 21.4641 12.9355C21.4641 13.2192 21.4641 13.5029 21.4641 13.7952C21.5451 13.8358 21.6262 13.8763 21.7097 13.918C21.6692 14.0396 21.6286 14.1612 21.5869 14.2865C21.4653 14.2865 21.3437 14.2865 21.2184 14.2865C21.259 13.8407 21.2995 13.3949 21.3413 12.9355Z" fill="#1A3E71"/>
<path d="M8.31868 13.426C8.64873 13.6026 8.64873 13.6026 8.93273 13.7945C8.47904 13.9457 8.17061 13.8736 7.70462 13.7945C7.95024 13.5488 7.95024 13.5488 8.31868 13.426Z" fill="#2AB9E1"/>
<path d="M19.8665 12.1997C19.9071 12.3618 19.9476 12.5239 19.9893 12.691C20.192 12.7315 20.3946 12.772 20.6034 12.8138C20.6034 12.8543 20.6034 12.8948 20.6034 12.9366C20.2792 12.9366 19.955 12.9366 19.6209 12.9366C19.702 12.6934 19.783 12.4502 19.8665 12.1997Z" fill="#2673AC"/>
<path d="M20.9709 3.72388C21.2951 3.96704 21.6194 4.21021 21.9534 4.46074C21.7078 4.58355 21.7078 4.58355 21.4622 4.5068C21.1464 4.28971 21.0843 4.08299 20.9709 3.72388Z" fill="#DDEDF3"/>
<path d="M17.7772 2.49536C18.0609 2.57642 18.3446 2.65747 18.6368 2.74098C18.5963 2.86257 18.5558 2.98415 18.514 3.10942C18.2303 3.02836 17.9466 2.94731 17.6544 2.86379C17.6949 2.74221 17.7354 2.62063 17.7772 2.49536Z" fill="#7BB6D7"/>
<path d="M8.68828 14.1641C8.76933 14.1641 8.85039 14.1641 8.9339 14.1641C8.9339 14.3667 8.9339 14.5693 8.9339 14.7781C8.69074 14.8997 8.69074 14.8997 8.44266 15.0237C8.52371 14.74 8.60477 14.4564 8.68828 14.1641Z" fill="#4BCFEC"/>
<path d="M20.6019 12.9355C20.9013 12.9816 20.9013 12.9816 21.216 13.0584C21.3823 13.391 21.3468 13.6736 21.3388 14.0408C21.2983 14.0408 21.2577 14.0408 21.216 14.0408C21.216 13.8382 21.216 13.6356 21.216 13.4268C21.1375 13.3913 21.0589 13.3559 20.978 13.3193C20.7247 13.1812 20.7247 13.1812 20.6019 12.9355Z" fill="#2388BC"/>
<path d="M19.9899 1.8833C20.1925 1.92383 20.3952 1.96436 20.604 2.00611C20.604 2.12769 20.604 2.24928 20.604 2.37455C20.4013 2.33402 20.1987 2.29349 19.9899 2.25173C19.9899 2.13015 19.9899 2.00857 19.9899 1.8833Z" fill="#08286A"/>
<path d="M18.7614 1.14526C19.0653 1.26685 19.0653 1.26685 19.3754 1.39089C19.3754 1.51247 19.3754 1.63405 19.3754 1.75932C19.2133 1.71879 19.0512 1.67826 18.8842 1.63651C18.8437 1.4744 18.8031 1.31229 18.7614 1.14526Z" fill="#092F6E"/>
</svg>
